# xmcd
#
# Track frame offsets: 
#        150
#        22255
#        41810
#        67383
#        82418
#        99828
#        122180
#        143685
#        161645
#        182195
#
# Disc length: 2744 seconds
#
# Revision: 4
# Processed by: cddbd v1.5.2PL0 Copyright (c) Steve Scherf et al.
# Submitted via: ExactAudioCopy v1.0b3
#
DISCID=970ab60a
DTITLE=Thanh Tuyen, Giao Linh, Tuan Vu - Tinh Sau Bien Gioi 
DYEAR=1991
DGENRE=Soul
TTITLE0=Thanh Tuyen - Tinh sau bien gioi
TTITLE1=Tuan Vu - Phien khuc chieu mua
TTITLE2=Giao Linh - Neo duong ky niem
TTITLE3=Thanh Tuyen - Phien gac dem Xuan
TTITLE4=Giao Linh, Tuan Vu - Tuyet lanh
TTITLE5=Thanh Tuyen - Tim anh
TTITLE6=Giao Linh - Cho em tinh yeu va ngan cach
TTITLE7=Thanh Tuyen, Tuan Vu - Ai noi voi em
TTITLE8=Giao Linh - Ao trang ngay vu qui
TTITLE9=Thanh Tuyen - Xa lo khong den
EXTD=
EXTT0=
EXTT1=
EXTT2=
EXTT3=
EXTT4=
EXTT5=
EXTT6=
EXTT7=
EXTT8=
EXTT9=
PLAYORDER=
